<?xml version="1.0" standalone="no"?>
<!DOCTYPE svg PUBLIC "-//W3C//DTD SVG 20010904//EN"
 "http://www.w3.org/TR/2001/REC-SVG-20010904/DTD/svg10.dtd">
<svg version="1.0" xmlns="http://www.w3.org/2000/svg"
 width="500.000000pt" height="500.000000pt" viewBox="0 0 500.000000 500.000000"
 preserveAspectRatio="xMidYMid meet">
<metadata>
Created by potrace 1.14, written by Peter Selinger 2001-2017
</metadata>
<g transform="translate(0.000000,500.000000) scale(0.100000,-0.100000)"
fill="#000000" stroke="none">
<path d="M3420 4310 c0 -5 -7 -10 -15 -10 -17 0 -95 -74 -95 -90 0 -5 -9 -25
-20 -45 -11 -20 -20 -51 -20 -69 0 -18 -7 -39 -15 -46 -9 -7 -12 -22 -9 -39 4
-18 0 -33 -10 -44 -10 -10 -16 -33 -16 -66 0 -28 -4 -51 -10 -51 -5 0 -10 -18
-10 -39 0 -22 -4 -43 -10 -46 -5 -3 -10 -19 -10 -34 0 -16 -7 -34 -15 -41 -8
-7 -13 -16 -10 -20 3 -4 -2 -13 -10 -20 -8 -7 -15 -17 -15 -23 0 -15 -51 -67
-65 -67 -12 0 -115 101 -115 114 0 5 -12 24 -27 42 -16 19 -40 49 -55 68 -16
18 -28 40 -28 48 0 8 -11 24 -25 36 -14 13 -24 26 -21 31 3 4 -6 19 -19 31
-14 13 -25 29 -25 35 0 6 -16 26 -35 45 -19 19 -35 39 -35 45 0 22 -137 146
-193 175 -82 43 -187 42 -187 -1 0 -10 -4 -19 -10 -19 -5 0 -10 -9 -10 -19 0
-11 -4 -23 -10 -26 -5 -3 -10 -30 -10 -58 0 -29 -7 -92 -15 -142 -20 -119 -20
-377 -1 -408 10 -16 16 -80 21 -237 8 -270 14 -350 24 -375 12 -27 31 -121 31
-151 0 -14 7 -36 16 -49 9 -13 13 -29 9 -35 -3 -5 5 -14 19 -20 14 -5 26 -14
26 -20 0 -5 20 -10 45 -10 38 0 45 3 45 19 0 11 5 23 10 26 6 3 10 46 10 95 0
49 -4 92 -10 95 -5 3 -10 24 -10 45 0 21 -4 42 -10 45 -5 3 -10 26 -10 50 0
24 -4 47 -10 50 -5 3 -10 28 -10 54 0 31 -5 53 -15 61 -10 8 -15 31 -15 71 0
32 -4 61 -10 64 -6 4 -10 102 -10 261 0 163 4 254 10 254 6 0 10 16 10 36 0
39 15 74 32 74 17 0 108 -93 108 -110 0 -9 9 -22 20 -30 11 -8 20 -22 20 -30
0 -9 11 -27 25 -40 14 -13 25 -29 25 -35 0 -7 9 -20 20 -30 11 -10 20 -23 20
-30 0 -7 9 -20 20 -30 11 -10 22 -27 26 -38 3 -11 17 -31 30 -44 13 -13 24
-29 24 -35 0 -18 151 -166 176 -172 13 -4 24 -11 24 -16 0 -17 136 -12 150 5
7 8 19 15 27 15 17 0 87 69 90 89 1 9 7 17 12 19 6 2 11 12 11 22 0 10 5 22
10 25 6 3 10 19 10 36 0 16 5 29 10 29 6 0 10 13 10 29 0 16 7 34 15 41 9 8
13 21 9 32 -3 10 1 30 10 43 9 13 16 40 16 59 0 19 5 38 10 41 6 3 10 15 10
26 0 10 5 19 10 19 6 0 10 13 10 29 0 17 4 32 9 36 11 6 41 63 41 77 0 4 17
26 38 48 l38 40 36 -37 c19 -21 48 -60 63 -88 15 -27 31 -54 36 -59 5 -6 9
-20 9 -32 0 -12 7 -27 15 -34 8 -7 13 -16 10 -20 -3 -5 2 -15 10 -23 8 -9 15
-27 15 -41 0 -14 5 -28 10 -31 6 -3 10 -19 10 -36 0 -16 5 -29 10 -29 6 0 10
-13 10 -29 0 -16 6 -34 14 -40 10 -8 13 -23 9 -46 -3 -22 0 -41 11 -56 9 -13
16 -40 16 -61 0 -21 5 -38 10 -38 6 0 10 -25 10 -55 0 -30 5 -55 10 -55 6 0
10 -24 10 -54 0 -32 5 -56 12 -58 8 -3 10 -44 9 -139 -2 -112 1 -138 13 -149
9 -7 16 -20 16 -29 0 -9 5 -22 12 -29 14 -14 114 -16 123 -2 3 6 15 10 26 10
18 0 19 8 19 156 0 128 -3 158 -16 171 -11 12 -15 33 -13 85 1 42 -2 73 -9 80
-7 7 -12 33 -12 59 0 26 -4 51 -10 54 -5 3 -10 28 -10 55 0 27 -4 52 -10 55
-5 3 -10 20 -10 36 0 18 -6 32 -16 36 -10 4 -14 16 -12 39 1 18 -3 39 -10 46
-6 6 -12 27 -12 45 0 18 -4 42 -10 53 -5 11 -14 29 -20 40 -5 11 -10 28 -10
39 0 10 -7 24 -15 31 -8 7 -15 23 -15 36 0 12 -4 26 -10 29 -5 3 -10 15 -10
26 0 10 -4 19 -10 19 -5 0 -10 8 -10 19 0 10 -7 25 -16 32 -9 7 -20 22 -25 34
-22 47 -41 71 -105 136 -44 44 -77 69 -91 69 -12 0 -25 5 -28 10 -3 6 -37 10
-76 10 -39 0 -69 -4 -69 -10z"/>
<path d="M2690 2611 c0 -111 3 -141 15 -151 11 -9 15 -34 15 -95 0 -66 3 -84
16 -89 12 -5 15 -21 13 -81 -1 -47 2 -80 9 -87 7 -7 12 -41 12 -78 0 -43 5
-73 15 -86 11 -14 14 -50 15 -141 0 -70 4 -124 10 -128 6 -4 10 -68 10 -159 0
-138 -2 -155 -19 -170 -18 -17 -21 -16 -66 8 -25 14 -52 26 -60 26 -8 0 -15 5
-15 10 0 6 -8 10 -18 10 -10 0 -29 12 -43 26 -13 14 -39 35 -58 46 -18 12 -52
41 -74 65 -22 23 -47 43 -56 43 -9 0 -72 56 -141 125 -69 69 -131 125 -139
125 -8 0 -38 24 -66 53 -28 28 -62 59 -76 66 -54 33 -152 81 -164 81 -7 0 -18
7 -25 15 -7 8 -25 15 -40 15 -15 0 -33 7 -40 15 -10 12 -38 15 -136 15 l-124
0 0 -33 c0 -18 -7 -42 -15 -53 -9 -12 -14 -44 -15 -91 0 -39 -4 -75 -10 -78
-6 -4 -10 -58 -10 -130 0 -72 4 -126 10 -130 6 -3 10 -44 10 -89 0 -63 4 -87
15 -96 12 -10 15 -29 14 -72 -1 -34 3 -64 9 -70 7 -7 12 -38 12 -69 0 -41 4
-58 15 -63 11 -4 15 -21 15 -65 0 -45 4 -60 16 -65 13 -5 16 -16 12 -56 -4
-35 -1 -53 8 -61 8 -6 14 -30 14 -54 0 -25 6 -48 15 -55 8 -6 13 -17 12 -23
-1 -6 9 -13 23 -15 13 -2 30 -11 37 -20 12 -16 14 -16 24 1 6 10 22 17 38 17
16 0 34 7 41 15 15 19 16 133 1 148 -7 7 -11 51 -11 113 0 78 -3 104 -15 114
-11 9 -15 32 -15 81 0 37 -4 71 -10 74 -5 3 -10 34 -10 68 -1 37 -6 69 -15 80
-9 13 -12 35 -8 73 5 42 2 58 -11 73 -14 15 -16 38 -14 142 l3 124 32 3 c18 2
43 -4 55 -12 12 -9 39 -16 60 -16 21 0 38 -4 38 -10 0 -5 8 -10 19 -10 10 0
24 -7 31 -15 7 -8 19 -15 26 -15 20 0 96 -49 112 -72 7 -10 21 -18 30 -18 10
0 62 -45 117 -101 55 -55 136 -131 180 -169 44 -37 115 -102 158 -144 43 -42
84 -76 91 -76 7 0 23 -11 36 -25 13 -14 30 -25 37 -25 8 0 23 -9 35 -20 12
-11 29 -20 37 -20 9 0 29 -7 45 -15 15 -8 42 -15 60 -15 17 0 40 -7 50 -15 47
-35 136 -9 136 39 0 10 9 20 20 23 19 5 20 14 20 183 0 169 -1 178 -20 183
-18 5 -20 14 -20 86 0 59 -5 89 -16 107 -13 18 -15 37 -11 75 5 39 3 51 -8 56
-11 4 -15 22 -15 62 -1 33 -7 64 -15 75 -9 12 -15 42 -15 77 0 32 -4 61 -10
64 -5 3 -10 30 -10 59 0 35 -5 58 -15 66 -10 8 -15 31 -15 66 0 29 -4 56 -10
59 -5 3 -10 37 -10 74 0 49 -4 72 -15 81 -11 10 -15 36 -15 114 -1 105 -11
136 -44 136 -9 0 -19 7 -22 15 -4 10 -20 15 -50 15 l-44 0 0 -139z"/>
<path d="M3915 2490 c-4 -6 -88 -10 -220 -10 -132 0 -216 -4 -220 -10 -4 -6
-68 -10 -159 -10 -140 0 -154 -2 -171 -20 -17 -19 -17 -21 0 -47 10 -16 37
-45 59 -65 41 -38 41 -38 131 -38 59 -1 99 -6 115 -15 14 -8 48 -14 77 -15 28
0 55 -4 58 -10 3 -5 19 -10 36 -10 16 0 29 -4 29 -10 0 -5 6 -10 13 -10 23 0
72 -28 98 -56 13 -14 34 -30 46 -35 20 -7 36 -28 95 -118 9 -14 17 -36 17 -49
1 -13 8 -30 16 -38 8 -9 15 -31 15 -49 0 -19 5 -37 10 -40 6 -3 10 -33 10 -65
0 -32 5 -62 10 -65 16 -10 13 -459 -2 -488 -25 -44 -92 -107 -114 -107 -13 0
-26 -4 -29 -10 -3 -6 -48 -10 -100 -10 -52 0 -97 -4 -100 -10 -3 -5 -21 -10
-38 -10 -18 0 -43 -7 -55 -16 -18 -13 -22 -25 -22 -73 0 -53 3 -60 38 -94 25
-24 47 -37 65 -37 15 0 27 -4 27 -10 0 -13 147 -13 155 0 3 6 21 10 39 10 31
0 138 46 144 62 2 4 11 8 21 8 22 0 151 130 151 153 0 10 7 20 15 23 8 4 15
14 15 24 0 11 5 22 10 25 6 3 10 24 10 46 0 21 5 39 10 39 6 0 10 35 10 84 0
47 -4 88 -10 91 -5 3 -10 33 -10 65 0 32 -4 62 -10 65 -5 3 -10 21 -10 39 0
18 -7 41 -15 52 -8 10 -15 36 -15 57 0 20 -4 37 -10 37 -5 0 -10 20 -10 45 0
25 -4 45 -10 45 -5 0 -10 18 -10 39 0 22 -4 43 -10 46 -5 3 -10 28 -10 54 0
26 -7 56 -15 67 -21 27 -21 187 0 204 8 7 15 18 15 24 1 17 77 66 105 66 13 0
27 5 30 10 3 6 19 10 36 10 16 0 29 5 29 10 0 6 7 10 15 10 28 0 95 49 95 70
0 11 7 20 15 20 10 0 15 10 15 30 l0 30 -259 0 c-163 0 -262 -4 -266 -10z"/>
</g>
</svg>
